<svg version="1" xmlns="http://www.w3.org/2000/svg" width="400" height="400" viewBox="0 0 300.000000 300.000000"><path d="M60 1C42.8 3.4 30.9 9 20 20 11.2 28.7 6.3 37.3 2.8 50L.5 58.5v183l2.3 8.5c3.5 12.7 8.4 21.3 17.2 30 8.7 8.8 17.3 13.7 30 17.2l8.5 2.3h183l8.5-2.3c12.7-3.5 21.3-8.4 30-17.2 8.8-8.7 13.7-17.3 17.2-30l2.3-8.5v-183l-2.3-8.5c-3.5-12.7-8.4-21.3-17.2-30-8.6-8.7-17.1-13.6-29.5-17.1l-8-2.3L154 .4C105.3.3 63 .6 60 1zm179 26.4c13.1 4.3 24.2 13.9 29.9 25.8 3.7 7.9 5.1 17.2 5.1 34.9v11.6l-8.7.6c-11.3.7-17.1 2.8-23.3 8.4-10.6 9.5-12.4 16.7-11.8 45.1.5 20.7 1.3 24.2 6.9 31.5 6.8 8.9 14.2 12.4 28.1 13.4l8.8.6v11.6c0 26.3-3.1 36.4-14.9 48.2-8.5 8.5-16.9 12.6-28.3 13.9-10.8 1.3-151.8 1.3-162.6 0-19.1-2.2-35-15.5-40.7-34-1.2-3.9-1.9-10.5-2.2-22.8l-.6-17.2h4.9c6.9 0 17.1-1.8 20.7-3.7 5.4-2.7 12.9-10.6 15.6-16.3 2.6-5.4 2.6-5.7 2.6-29.5v-24l-2.7-5.5c-6.5-13.2-18.3-20-34.6-20h-6.5l.6-17.3C26 58.9 29 50.2 40.2 39.4c8-7.8 17.1-12.2 28.3-13.7 1.7-.3 39.5-.4 84-.3 75.5.1 81.4.3 86.5 2z"/><path d="M128.5 74.5c-21 3.8-38.5 21-43 42.2-1.8 8.3-2.1 74.9-.4 85.3 2.5 15.9 14.5 32.1 29 39.3 10.6 5.1 16.4 6 39 5.5 22.4-.5 26.5-1.5 38.1-9.4 10-6.8 16.1-15.1 21.1-28.4 2-5.2 2.1-7.9 2.5-45.8.3-37.9.2-40.8-1.7-48.3-2.7-10.5-7-17.9-15-25.9-7.9-7.8-17.3-12.7-28.1-14.6-9.4-1.7-32.2-1.6-41.5.1zm40.4 10c17.5 4.2 31.9 19.1 35.1 36.4 1.3 7 1.3 72.2 0 79.1-3.3 17.6-18.5 32.7-36.7 36.5-8.7 1.9-26.9 1.9-35.6 0-18.6-3.9-33.3-18.8-36.6-36.9-1.5-8-1.5-71.8 0-78.8 3.6-17.4 17-31.6 33.9-36 8.6-2.2 30.9-2.4 39.9-.3z"/><path d="M133.5 101.4c-7.5 1.9-12.5 4.8-17.8 10.5-8.8 9.4-9.2 11.1-9.2 37.6s.4 28.2 9.2 37.6c8.9 9.5 19.8 12.7 39.6 11.5 13.7-.7 20.3-3.4 27.7-11.2 9.1-9.6 9.5-11.3 9.5-37.9 0-26.5-.4-28.2-9.2-37.6-5.4-5.8-11.3-9.1-19.1-10.8-6.9-1.4-24.3-1.3-30.7.3zm-10.7 43.8c.8.8 1.2 4.7 1.2 10.7 0 12.4 1.1 16 6 20.5 3.5 3.2 4.6 3.6 9.3 3.6 2.8 0 6.2.3 7.4.6 2.8.8 3.9 4 2.2 6.1-1.7 2-15 1.4-19.5-1-4.5-2.3-9.2-7.3-11-11.6-2.1-4.7-3.1-24.9-1.5-27.9 1.3-2.4 4-2.9 5.9-1z"/></svg>